inDegrees=no
num_controls=7
num_derivatives=13
num_iterations=129
num_multipliers=7
num_parameters=0
num_slacks=7
num_states=26
objective=0.497100
objective_accelerations=0.032224
objective_balance=0.003272
objective_effort=0.034991
objective_height=0.421123
objective_ligament=0.005490
solver_duration=1502.280876
status=Solve_Succeeded
success=true
DataType=double
version=3
OpenSimVersion=4.5
endheader
time	/jointset/ground_pelvis/pelvis_tilt/value	/jointset/ground_pelvis/pelvis_tx/value	/jointset/ground_pelvis/pelvis_ty/value	/jointset/hip_r/hip_flexion_r/value	/jointset/hip_r/hip_adduction_r/value	/jointset/hip_r/hip_rotation_r/value	/jointset/back/lumbar_extension/value	/jointset/patellofemoral_r/patellar_flexion_r/value	/jointset/knee_r/knee_flexion_r/value	/jointset/knee_r/knee_adduction_r/value	/jointset/knee_r/knee_rotation_r/value	/jointset/ankle_r/ankle_angle_r/value	/jointset/subtalar_r/subtalar_angle_r/value	/jointset/ground_pelvis/pelvis_tilt/speed	/jointset/ground_pelvis/pelvis_tx/speed	/jointset/ground_pelvis/pelvis_ty/speed	/jointset/hip_r/hip_flexion_r/speed	/jointset/hip_r/hip_adduction_r/speed	/jointset/hip_r/hip_rotation_r/speed	/jointset/back/lumbar_extension/speed	/jointset/patellofemoral_r/patellar_flexion_r/speed	/jointset/knee_r/knee_flexion_r/speed	/jointset/knee_r/knee_adduction_r/speed	/jointset/knee_r/knee_rotation_r/speed	/jointset/ankle_r/ankle_angle_r/speed	/jointset/subtalar_r/subtalar_angle_r/speed	/forceset/tau_hip_flexion_r	/forceset/tau_hip_adduction_r	/forceset/tau_hip_rotation_r	/forceset/tau_knee_flexion_r	/forceset/tau_ankle_angle_r	/forceset/tau_subtalar_angle_r	/forceset/tau_lumbar_extension	lambda_cid13_p0	lambda_cid14_p0	lambda_cid14_p1	lambda_cid14_p2	lambda_cid14_p3	lambda_cid14_p4	lambda_cid14_p5	/jointset/ground_pelvis/pelvis_tilt/accel	/jointset/ground_pelvis/pelvis_tx/accel	/jointset/ground_pelvis/pelvis_ty/accel	/jointset/hip_r/hip_flexion_r/accel	/jointset/hip_r/hip_adduction_r/accel	/jointset/hip_r/hip_rotation_r/accel	/jointset/back/lumbar_extension/accel	/jointset/patellofemoral_r/patellar_flexion_r/accel	/jointset/knee_r/knee_flexion_r/accel	/jointset/knee_r/knee_adduction_r/accel	/jointset/knee_r/knee_rotation_r/accel	/jointset/ankle_r/ankle_angle_r/accel	/jointset/subtalar_r/subtalar_angle_r/accel	gamma_cid13_p0	gamma_cid14_p0	gamma_cid14_p1	gamma_cid14_p2	gamma_cid14_p3	gamma_cid14_p4	gamma_cid14_p5
0.5	-0.09636548181645076	0.0522798902575298	0.8636607870295256	0.6909068072521921	-0.2303139972193035	-0.132919499085494	-0.3168925737461446	0.6881693423545053	0.6881693423545056	0.04184994775611633	0.1744666894546638	0.2645237699137221	0.05664443171895565	-0.2582032407114319	-0.08953344191418622	-0.3255657591448236	1.398993419689794	-0.00789256959815816	0.2555674253564671	-0.5997340672416103	1.662293883072519	1.662293883072519	-0.2787126560739133	-7.287546524017367e-08	0.6108868578654743	0.1639931295495465	-0.07424649996556673	-0.01896026451108098	0.00830284052059755	-0.339757700053002	0.06115564975090391	-0.009754490080191037	0.1345014752264484	-32.00294094328501	-22.56943254154032	-4.226158246581394	-3.391778863841442	4.029412991204848	-670.7956457414368	60.31445495838103	0.0637000205006604	0.2669382102730258	-0.3435765445586072	-0.8489962398044969	-0.04784891203484753	-0.5719270108350335	1.289688099790957	-1.143887261311854	-1.143887261311856	0.3680872215826395	0.009571598505277919	-0.4873807632752556	-0.06154402545195328	-1.087479323207929e-07	-1.56679536364127e-07	5.245409825896592e-07	-1.238768285538604e-06	4.051955931736778e-08	-2.120149816949818e-07	8.451678240387473e-07
0.51	-0.09894388556020091	0.05139802305971746	0.8603886796319835	0.7048520497266226	-0.2303960721423682	-0.1303911416183332	-0.3228247078229044	0.7047325453802766	0.7047325453802771	0.03908370473893033	0.1744669534187002	0.2706071256250636	0.05827989228107591	-0.2574411436222608	-0.08682985745448875	-0.3287815299217501	1.389859049919603	-0.008526079480765576	0.2501313768396533	-0.5866131278409042	1.650108581638114	1.650108581638114	-0.274488685898003	3.209413396278854e-05	0.6056980214840888	0.1630644672011691	-0.07948262704784553	-0.01718837557594007	0.008957407459332581	-0.3425805059497093	0.05691249160580743	-0.009150574469253723	0.139323642269322	-31.0563189076497	-24.07179467428702	-4.341819624204205	-3.24210786618041	4.62094509979048	-673.9755324283143	60.11531829487119	0.08790661045244348	0.2735989260406207	-0.2994919772392183	-0.9750781830708983	-0.07181726748385539	-0.5255291044931701	1.335239900628585	-1.291551796879635	-1.291551796879718	0.4566451647525352	-0.003292578744021547	-0.5475832521918718	-0.1137742350097408	-9.306897657546676e-08	-1.211360556350961e-07	5.545791812712869e-07	-9.675454557735451e-07	1.55973804785947e-08	-1.73328120499208e-07	7.430507028078573e-07
0.52	-0.1015135799215939	0.05054349777894662	0.8570866316000763	0.7187000643358623	-0.2304846252124809	-0.1279163617028181	-0.3286232438975736	0.7211667553492288	0.7211667553492296	0.03636112007333488	0.1744668726866499	0.2766360033372668	0.05990501684061657	-0.2564613642400054	-0.0840650585058877	-0.3315538860178489	1.379547846651634	-0.009188199007778718	0.2448519150272944	-0.5730144668234758	1.636495271708717	1.636495271708716	-0.2699809857558008	-6.901209283335339e-05	0.5999912580378367	0.1619259290336276	-0.0847187541300267	-0.01541648664079916	0.009611974398067552	-0.3454033118464165	0.05266933346071095	-0.008546658858316401	0.1441458093121955	-30.10156958489963	-25.5785716948021	-4.455574278200038	-3.095802373106513	5.199601672490688	-677.2298265632846	59.97983570581141	0.1072364791175181	0.2791811080537365	-0.2548936083930353	-1.084362939359925	-0.05357084091589819	-0.5406096699441051	1.385232423135429	-1.429488960310215	-1.429488960310215	0.4248332148409634	-0.01708304873962573	-0.590966176248526	-0.1035191892847602	-7.043665141624026e-08	-4.966194422490013e-08	7.098106923911187e-07	-4.410005158620769e-07	-4.717344526521414e-08	-8.712100452604806e-08	6.07054345528715e-07
0.53	-0.1040724981210739	0.04971689430885133	0.8537591013564449	0.7324393653638522	-0.2305795265600839	-0.1254952495242257	-0.3342834225624209	0.7374578868250961	0.7374578868250961	0.03368324322581389	0.1744660338881701	0.2826054245447229	0.06151832858245825	-0.2552860537377979	-0.08124747109515462	-0.3338740234611055	1.36811848231099	-0.009798462534578091	0.2394023131164872	-0.5589542475024866	1.621499481712583	1.621499481712582	-0.265540185659806	-0.0001175593177038135	0.5938102245806945	0.1606976304263167	-0.08978142705028207	-0.01381222375119714	0.01028622067015391	-0.3484730261057072	0.04872813947773936	-0.008042408640425753	0.1488283132467557	-29.14094020486624	-26.99897051705081	-4.603840849650921	-2.936739723417447	5.741871779562563	-680.5539736337269	59.83636719075007	0.1281097341464949	0.2842561914897032	-0.208861293296924	-1.201306307812892	-0.06567579683213273	-0.5424388259474582	1.426469483104102	-1.569343572289098	-1.569343572289112	0.4619365731833063	-0.001578830047525371	-0.6441060840789439	-0.1381985410095019	-4.594101044404416e-08	3.102780900439089e-08	9.1688816999913e-07	1.521748216275391e-07	-1.214381715616564e-07	5.118076807435915e-09	4.94319074604612e-07
0.54	-0.106618576935857	0.04891870843964469	0.8504107122421802	0.7460585561231564	-0.2306807148806088	-0.123127694039601	-0.3398009884747535	0.7535921164903968	0.7535921164903963	0.03105142101249378	0.1744641419633043	0.2885105485868811	0.06311821466931573	-0.2538934873006263	-0.07838153832815703	-0.3357256601445581	1.355525792914498	-0.01044559359218447	0.2341405762337427	-0.5444919163205599	1.605114909595485	1.605114909595484	-0.2607700589156281	-0.0002796373700458812	0.5871318249782767	0.1592407980367957	-0.09484409997053744	-0.01220796086159269	0.01096046694224078	-0.3515427403649979	0.04478694549476774	-0.007538158422535217	0.1535108171813159	-28.17516656314907	-28.42538693739304	-4.752140304331972	-2.778837459291915	6.282926864093805	-683.9717880394661	59.72297683036673	0.1506876661103581	0.2888501793066549	-0.1611934564320339	-1.317027950529341	-0.0609443470772993	-0.5030366643315811	1.465654795322874	-1.70724538450307	-1.70724538450307	0.4906985444776175	-0.03978921423403058	-0.6904394053037096	-0.1492259457267814	-1.938382857239228e-08	1.219135914803404e-07	1.181327142445128e-06	8.190688968631922e-07	-2.084195537886719e-07	1.040308219438316e-07	4.073194736903401e-07
0.55	-0.1091498248868349	0.04814939883574258	0.8470461554862085	0.7595463859496946	-0.2307879926622607	-0.1208144825164664	-0.3451718650616228	0.7695557692863105	0.7695557692863103	0.02846615966789353	0.1744614661904237	0.294346671381258	0.06470327756377646	-0.2523251566266334	-0.07547330253827506	-0.3371050147605016	1.341855186192897	-0.01101183928067893	0.2285034027633287	-0.5296240844175069	1.587392930566447	1.587392930566447	-0.2562593113115851	-0.0002577750133343429	0.5800178377892962	0.1577410420349332	-0.09967589975545865	-0.01075276862747401	0.01155885627806717	-0.3548585305760531	0.04124633778304135	-0.007031163940086694	0.1580089032312282	-27.2053100172983	-29.72330718720169	-4.874801476019155	-2.627248249974474	6.732457447384619	-687.3949470456114	59.68361957828366	0.1645601144058881	0.2928210931388643	-0.1141734241419379	-1.419806529457707	-0.05444669909244074	-0.5937522238646842	1.506244883161719	-1.838081035604346	-1.838081035604257	0.4349321497286638	0.02307903975509549	-0.7331502418706096	-0.1546136442626569	-1.8657479791105e-09	1.780077662701818e-07	1.338084043602956e-06	1.227095650355208e-06	-2.616835936834691e-07	1.640742929521334e-07	3.670903167634094e-07
